<svg width="157" height="36" viewBox="0 0 157 36" fill="none" xmlns="http://www.w3.org/2000/svg">
<path d="M45.2904 18.1958C44.5268 17.859 43.9268 17.3812 43.4904 16.7702C43.1086 16.2219 42.8904 15.6031 42.8437 14.8903C42.8359 14.7415 42.9606 14.6083 43.1164 14.6083H44.1216C44.7138 14.6083 45.2982 14.9138 45.5554 15.4543C45.68 15.7049 45.8437 15.9321 46.0619 16.1357C46.4904 16.5352 47.0904 16.731 47.8697 16.731C48.6489 16.731 49.3034 16.5352 49.7476 16.1436C50.1995 15.7519 50.4255 15.2506 50.4255 14.6318C50.4255 14.154 50.2853 13.7624 50.0047 13.4569C49.7242 13.1592 49.3814 12.9243 48.9606 12.7598C48.5476 12.5953 47.971 12.4151 47.2307 12.2271C46.3034 11.9765 45.5476 11.7337 44.9709 11.4752C44.3943 11.2245 43.8956 10.825 43.4904 10.2924C43.0774 9.75976 42.8748 9.04697 42.8748 8.15402C42.8748 7.33157 43.0774 6.61094 43.4904 5.99997C43.9034 5.38901 44.4722 4.9112 45.2047 4.58222C45.9372 4.25324 46.7943 4.08875 47.7606 4.08875C49.1398 4.08875 50.2619 4.43339 51.1424 5.13052C51.945 5.76499 52.4203 6.61094 52.5684 7.67621C52.5918 7.83287 52.4593 7.97386 52.3034 7.97386H50.2541C50.1216 7.97386 50.0203 7.87204 49.9892 7.74671C49.9034 7.32373 49.6697 6.95559 49.2878 6.64227C48.8359 6.27412 48.2437 6.08614 47.5112 6.08614C46.8411 6.08614 46.2956 6.25846 45.8749 6.60311C45.4541 6.94775 45.2437 7.44123 45.2437 8.08352C45.2437 8.52217 45.3761 8.88248 45.6411 9.16446C45.906 9.44645 46.2411 9.66577 46.6541 9.83026C47.0593 9.99475 47.6203 10.1749 48.3294 10.3629C49.2723 10.6214 50.0359 10.8799 50.6281 11.1462C51.2203 11.4125 51.7268 11.8042 52.1398 12.3446C52.5528 12.8851 52.7632 13.6057 52.7632 14.5143C52.7632 15.2428 52.5684 15.9243 52.1788 16.5666C51.7892 17.2089 51.2281 17.7258 50.4801 18.1175C49.7398 18.5091 48.8593 18.7049 47.8541 18.7049C46.9034 18.7049 46.0385 18.5404 45.2826 18.2036L45.2904 18.1958Z" fill="white"/>
<path d="M57.2671 18.0157C56.4099 17.53 55.732 16.8407 55.2411 15.9634C54.7502 15.0783 54.5086 14.0522 54.5086 12.8929C54.5086 11.7337 54.758 10.7232 55.2645 9.83028C55.771 8.93733 56.4567 8.25587 57.3294 7.77806C58.2022 7.30025 59.1762 7.05743 60.2515 7.05743C61.3268 7.05743 62.3009 7.30025 63.1736 7.77806C64.0463 8.25587 64.7321 8.94516 65.2385 9.83028C65.745 10.7232 65.9944 11.7415 65.9944 12.8929C65.9944 14.0444 65.7373 15.0627 65.2152 15.9556C64.7009 16.8486 63.9918 17.5379 63.0957 18.0235C62.1996 18.5091 61.2178 18.7519 60.1424 18.7519C59.0671 18.7519 58.1164 18.5091 57.2593 18.0235L57.2671 18.0157ZM61.8333 16.2768C62.3554 15.9869 62.784 15.5561 63.1113 14.9843C63.4385 14.4125 63.6022 13.7076 63.6022 12.8851C63.6022 12.0627 63.4463 11.3655 63.1346 10.8016C62.823 10.2298 62.4022 9.80678 61.8879 9.51696C61.3736 9.22715 60.8126 9.08615 60.2126 9.08615C59.6126 9.08615 59.0593 9.22715 58.545 9.51696C58.0307 9.80678 57.6255 10.2298 57.3294 10.8016C57.0255 11.3734 56.8775 12.0627 56.8775 12.8851C56.8775 14.107 57.1892 15.047 57.8048 15.7128C58.4281 16.3786 59.2074 16.7076 60.1424 16.7076C60.7424 16.7076 61.3035 16.5666 61.8255 16.2768H61.8333Z" fill="white"/>
<path d="M81.0568 9.82241C81.5243 8.94512 82.1711 8.26366 82.9815 7.77802C83.7919 7.29238 84.688 7.04956 85.6698 7.04956C86.5581 7.04956 87.3296 7.22188 87.9919 7.57436C88.6542 7.92685 89.1841 8.35765 89.5737 8.88246V8.84329C89.5737 7.95818 90.2906 7.23755 91.1711 7.23755H91.662C91.8101 7.23755 91.927 7.35504 91.927 7.50387V18.2898C91.927 18.4386 91.8101 18.5561 91.662 18.5561H89.8465C89.6984 18.5561 89.5815 18.4386 89.5815 18.2898V16.872C89.1841 17.4047 88.6465 17.8511 87.9685 18.2114C87.2828 18.5639 86.5114 18.7441 85.6386 18.7441C84.6724 18.7441 83.7841 18.4934 82.9815 17.9921C82.1789 17.4908 81.5399 16.7937 81.0724 15.8929C80.6049 14.9921 80.3711 13.9817 80.3711 12.8381C80.3711 11.6945 80.6049 10.6919 81.0724 9.81457L81.0568 9.82241ZM89.0906 10.8485C88.7711 10.2767 88.3503 9.83807 87.8361 9.53259C87.3218 9.23494 86.7607 9.07828 86.1607 9.07828C85.5607 9.07828 84.9997 9.22711 84.4854 9.51692C83.9711 9.81457 83.5503 10.2454 83.2309 10.8094C82.9114 11.3812 82.7477 12.0548 82.7477 12.8302C82.7477 13.6057 82.9114 14.295 83.2309 14.8825C83.5503 15.4699 83.9711 15.9242 84.501 16.2297C85.0231 16.5352 85.5841 16.6919 86.1685 16.6919C86.7529 16.6919 87.3296 16.543 87.8439 16.2375C88.3581 15.9399 88.7789 15.4934 89.0984 14.9138C89.4179 14.3342 89.5815 13.6527 89.5815 12.8694C89.5815 12.0861 89.4179 11.4125 89.0984 10.8329L89.0906 10.8485Z" fill="white"/>
<path d="M98.8309 7.53524C99.3296 7.25326 99.9062 7.0966 100.569 7.05743C100.717 7.05743 100.849 7.17493 100.849 7.32375V9.46997H100.257C99.3452 9.46997 98.6517 9.70495 98.1842 10.1671C97.7166 10.6292 97.4829 11.4439 97.4829 12.5953V18.2898C97.4829 18.4386 97.366 18.5561 97.2179 18.5561H95.4179C95.2699 18.5561 95.153 18.4386 95.153 18.2898V7.50391C95.153 7.35508 95.2699 7.23759 95.4179 7.23759H95.8854C96.766 7.23759 97.4829 7.95822 97.4829 8.84333V8.8825C97.8257 8.3107 98.2777 7.85639 98.8387 7.53524H98.8309Z" fill="white"/>
<path d="M77.6906 9.2506C77.2931 8.52215 76.7477 7.97384 76.0464 7.6057C75.3451 7.23755 74.5503 7.04956 73.662 7.04956C73.584 7.04956 73.5061 7.04956 73.4282 7.05739C73.4204 7.05739 73.4126 7.05739 73.4048 7.05739C73.3659 7.05739 73.3347 7.06523 73.2957 7.06523C73.2022 7.06523 73.1165 7.08089 73.0308 7.08872C72.9685 7.09656 72.8983 7.10439 72.836 7.12006C72.7269 7.14356 72.6178 7.15922 72.5087 7.19055C72.4931 7.19055 72.4697 7.19838 72.4542 7.20622C72.1736 7.28455 71.9087 7.39421 71.6671 7.52737C71.0983 7.84852 70.6464 8.29499 70.3113 8.87463V8.83546C70.3113 7.95034 69.5944 7.22972 68.7139 7.22972H68.2464C68.0983 7.22972 67.9814 7.34721 67.9814 7.49604V18.2819C67.9814 18.4308 68.0983 18.5483 68.2464 18.5483H70.0464C70.1944 18.5483 70.3113 18.4308 70.3113 18.2819V12.5874C70.3113 12.5874 70.3113 12.5639 70.3113 12.5561V12.2193C70.3113 11.2088 70.5684 10.4255 71.0749 9.88507C71.5892 9.3446 72.2749 9.07045 73.1477 9.07045C74.0204 9.07045 74.7061 9.3446 75.2126 9.88507C75.7191 10.4255 75.9685 11.201 75.9685 12.2193V18.2819C75.9685 18.4308 76.0853 18.5483 76.2334 18.5483H78.01C78.1581 18.5483 78.275 18.4308 78.275 18.2819V11.8668C78.275 10.8407 78.0802 9.9634 77.6828 9.23494L77.6906 9.2506Z" fill="white"/>
<path d="M114.493 20.9608L112.171 18.4308C111.556 18.6109 110.886 18.6971 110.145 18.6971C108.821 18.6971 107.605 18.3838 106.498 17.765C105.384 17.1383 104.511 16.2689 103.865 15.1566C103.218 14.0365 102.891 12.7832 102.891 11.389C102.891 9.99473 103.218 8.74147 103.865 7.62919C104.511 6.51692 105.392 5.6553 106.498 5.02867C107.605 4.40204 108.828 4.09656 110.145 4.09656C111.462 4.09656 112.701 4.40987 113.815 5.02867C114.93 5.6553 115.802 6.51692 116.441 7.62919C117.08 8.74147 117.4 9.99473 117.4 11.389C117.4 12.7049 117.119 13.8955 116.55 14.953C115.982 16.0104 115.202 16.8642 114.213 17.5143L115.163 18.5639C115.787 19.2454 115.701 20.3185 114.984 20.8981L114.86 21C114.75 21.0861 114.595 21.0783 114.501 20.9765L114.493 20.9608ZM105.898 14.1697C106.311 14.9686 106.888 15.5874 107.628 16.0182C108.361 16.449 109.202 16.6684 110.145 16.6684C111.088 16.6684 111.922 16.449 112.662 16.0182C113.402 15.5874 113.971 14.9686 114.392 14.1697C114.805 13.3707 115.015 12.4386 115.015 11.389C115.015 10.3394 114.805 9.40726 114.392 8.61614C113.979 7.82502 113.402 7.21405 112.662 6.78324C111.93 6.36027 111.088 6.14878 110.145 6.14878C109.202 6.14878 108.369 6.36027 107.628 6.78324C106.896 7.20622 106.319 7.81718 105.898 8.61614C105.478 9.4151 105.275 10.3315 105.275 11.389C105.275 12.4464 105.486 13.3707 105.898 14.1697Z" fill="white"/>
<path d="M130.047 8.83548V18.2898C130.047 18.4386 129.93 18.5561 129.782 18.5561H127.982C127.834 18.5561 127.717 18.4386 127.717 18.2898V17.2245C127.351 17.6867 126.867 18.0548 126.275 18.3211C125.683 18.5874 125.052 18.7206 124.382 18.7206C123.493 18.7206 122.706 18.5326 121.997 18.1645C121.288 17.7963 120.743 17.248 120.337 16.5196C119.932 15.7911 119.737 14.9138 119.737 13.8877V7.49605C119.737 7.34723 119.854 7.22974 120.002 7.22974H120.454C121.335 7.22974 122.052 7.95036 122.052 8.83548V13.5431C122.052 14.5535 122.301 15.3368 122.808 15.8773C123.314 16.4177 124 16.6919 124.873 16.6919C125.745 16.6919 126.439 16.4177 126.945 15.8773C127.452 15.3368 127.709 14.5613 127.709 13.5431V7.50389C127.709 7.35506 127.826 7.23757 127.974 7.23757H128.441C129.322 7.23757 130.039 7.9582 130.039 8.84331L130.047 8.83548Z" fill="white"/>
<path d="M136.623 7.57439C137.309 7.22191 138.08 7.04959 138.922 7.04959C139.919 7.04959 140.816 7.29241 141.618 7.77021C142.421 8.24802 143.06 8.92948 143.519 9.8146C143.979 10.6997 144.213 11.7102 144.213 12.8459C144.213 13.9817 143.979 15 143.519 15.9008C143.06 16.8015 142.421 17.4987 141.61 18C140.8 18.5013 139.904 18.7519 138.922 18.7519C138.049 18.7519 137.278 18.5796 136.6 18.235C135.922 17.8903 135.392 17.4517 134.995 16.919V18.2976C134.995 18.4465 134.878 18.5639 134.73 18.5639H132.93C132.782 18.5639 132.665 18.4465 132.665 18.2976V3.62661C132.665 3.47778 132.782 3.36029 132.93 3.36029H133.397C134.278 3.36029 134.995 4.08092 134.995 4.96604V8.92948C135.392 8.38118 135.93 7.9347 136.623 7.58222V7.57439ZM141.361 10.8172C141.041 10.2454 140.621 9.8146 140.091 9.52478C139.569 9.22713 139 9.08614 138.4 9.08614C137.8 9.08614 137.262 9.23496 136.732 9.54045C136.21 9.84593 135.782 10.2767 135.462 10.8564C135.143 11.4282 134.979 12.1096 134.979 12.8929C134.979 13.6762 135.143 14.3577 135.462 14.9373C135.782 15.5169 136.203 15.9634 136.732 16.2611C137.254 16.5666 137.815 16.7154 138.4 16.7154C138.984 16.7154 139.561 16.5587 140.091 16.2532C140.613 15.9478 141.041 15.4934 141.361 14.906C141.68 14.3185 141.844 13.6292 141.844 12.8538C141.844 12.0783 141.68 11.3968 141.361 10.8329V10.8172Z" fill="white"/>
<path d="M156.673 13.7702H148.304C148.374 14.671 148.709 15.3995 149.309 15.9478C149.909 16.4961 150.642 16.7702 151.514 16.7702C152.714 16.7702 153.571 16.2924 154.101 15.329C154.148 15.2428 154.234 15.188 154.327 15.188H156.688C156.345 16.2298 155.73 17.0835 154.842 17.7493C153.953 18.4151 152.839 18.7441 151.522 18.7441C150.447 18.7441 149.48 18.5013 148.631 18.0157C147.782 17.53 147.112 16.8407 146.629 15.9634C146.145 15.0862 145.904 14.0522 145.904 12.8929C145.904 11.7337 146.138 10.7076 146.605 9.82245C147.073 8.93733 147.735 8.25587 148.592 7.77806C149.442 7.30025 150.423 7.05743 151.522 7.05743C152.621 7.05743 153.532 7.29242 154.366 7.75456C155.2 8.2167 155.847 8.87467 156.306 9.72062C156.766 10.5666 157 11.53 157 12.6266C157 12.9556 156.984 13.2689 156.953 13.5431C156.938 13.6762 156.821 13.7702 156.688 13.7702H156.673ZM154.553 11.8747C154.538 11.013 154.234 10.3238 153.634 9.79895C153.034 9.28198 152.293 9.01566 151.405 9.01566C150.603 9.01566 149.917 9.27414 149.34 9.78328C148.771 10.3003 148.429 10.9895 148.319 11.8668H154.553V11.8747Z" fill="white"/>
<path d="M43.7787 26.671C44.0904 26.0835 44.5268 25.6292 45.08 25.3081C45.6333 24.9869 46.2723 24.8224 46.9814 24.8224C47.9086 24.8224 48.6723 25.0496 49.2723 25.4961C49.8723 25.9504 50.2697 26.577 50.4645 27.376H49.1164C48.984 26.9138 48.7346 26.5535 48.3684 26.2872C47.9943 26.0209 47.5346 25.8877 46.9891 25.8877C46.2723 25.8877 45.6956 26.1305 45.2593 26.624C44.8229 27.1175 44.5969 27.8146 44.5969 28.7154C44.5969 29.6162 44.8151 30.329 45.2593 30.8303C45.7034 31.3316 46.2723 31.5744 46.9891 31.5744C47.5424 31.5744 47.9943 31.4412 48.3606 31.1906C48.7268 30.9321 48.9762 30.564 49.1164 30.0862H50.4645C50.2619 30.8616 49.8567 31.4804 49.2567 31.9426C48.6489 32.4047 47.893 32.6397 46.9891 32.6397C46.2723 32.6397 45.6411 32.4752 45.0878 32.154C44.5346 31.8329 44.0982 31.3786 43.7865 30.7833C43.4748 30.1958 43.319 29.5065 43.319 28.7076C43.319 27.9086 43.4748 27.2428 43.7865 26.6553L43.7787 26.671Z" fill="white"/>
<path d="M53.5034 22.3002V32.5222H52.2567V22.3002H53.5034Z" fill="white"/>
<path d="M57.1424 32.1619C56.5658 31.8407 56.1216 31.3786 55.7944 30.7911C55.4671 30.1958 55.3035 29.5065 55.3035 28.7232C55.3035 27.9399 55.4671 27.2663 55.8022 26.671C56.1372 26.0757 56.5892 25.6214 57.1658 25.3003C57.7424 24.9791 58.3892 24.8224 59.1061 24.8224C59.823 24.8224 60.4697 24.9791 61.0463 25.3003C61.623 25.6214 62.0827 26.0679 62.41 26.6632C62.7451 27.2506 62.9087 27.9399 62.9087 28.7232C62.9087 29.5065 62.7373 30.1958 62.3944 30.7911C62.0515 31.3864 61.584 31.8407 60.9996 32.1619C60.4152 32.483 59.7606 32.6475 59.0515 32.6475C58.3424 32.6475 57.7035 32.483 57.1346 32.1619H57.1424ZM60.3217 31.2219C60.7191 31.0104 61.0308 30.6893 61.2801 30.2663C61.5217 29.8433 61.6463 29.3264 61.6463 28.7154C61.6463 28.1044 61.5295 27.5953 61.2879 27.1723C61.0463 26.7493 60.7347 26.436 60.3528 26.2245C59.971 26.0209 59.5502 25.9112 59.0983 25.9112C58.6463 25.9112 58.2178 26.013 57.8437 26.2245C57.4619 26.4282 57.158 26.7493 56.932 27.1723C56.7061 27.5953 56.5892 28.1123 56.5892 28.7154C56.5892 29.3185 56.6983 29.8512 56.9243 30.2741C57.1502 30.6971 57.4463 31.0104 57.8282 31.2219C58.2022 31.4256 58.6152 31.5352 59.0671 31.5352C59.5191 31.5352 59.9398 31.4256 60.3295 31.2141L60.3217 31.2219Z" fill="white"/>
<path d="M71.3866 24.9556V32.53H70.1321V31.4099C69.8905 31.7937 69.5633 32.0992 69.1347 32.3185C68.7061 32.5378 68.2386 32.6396 67.7243 32.6396C67.1399 32.6396 66.61 32.5143 66.1425 32.2715C65.6749 32.0287 65.3087 31.6605 65.036 31.1749C64.7632 30.6892 64.6308 30.0939 64.6308 29.389V24.9556H65.8697V29.2245C65.8697 29.9686 66.0567 30.5404 66.4308 30.9477C66.8048 31.355 67.3191 31.5509 67.9736 31.5509C68.6282 31.5509 69.1659 31.3472 69.5555 30.9321C69.9373 30.5169 70.1321 29.9138 70.1321 29.1227V24.9634H71.3866V24.9556Z" fill="white"/>
<path d="M73.6386 26.671C73.9503 26.0835 74.3789 25.6292 74.9243 25.3081C75.4698 24.9869 76.0776 24.8224 76.7555 24.8224C77.3399 24.8224 77.8854 24.9556 78.3919 25.2297C78.8984 25.5039 79.2802 25.8564 79.5451 26.3028V22.3002H80.8075V32.5222H79.5451V31.0966C79.2958 31.5509 78.9295 31.919 78.4464 32.2088C77.9633 32.4987 77.3945 32.6475 76.7399 32.6475C76.0854 32.6475 75.462 32.483 74.9165 32.1462C74.3711 31.8172 73.9425 31.3472 73.6308 30.7519C73.3191 30.1566 73.1633 29.4752 73.1633 28.7075C73.1633 27.9399 73.3191 27.2585 73.6308 26.671H73.6386ZM79.2023 27.235C78.9763 26.812 78.6646 26.483 78.275 26.2637C77.8854 26.0365 77.4568 25.9269 76.9893 25.9269C76.5217 25.9269 76.0932 26.0365 75.7113 26.2558C75.3295 26.4752 75.0178 26.7963 74.7919 27.2193C74.5659 27.6423 74.449 28.1436 74.449 28.7075C74.449 29.2715 74.5659 29.7885 74.7919 30.2193C75.0178 30.6501 75.3295 30.9712 75.7113 31.1984C76.0932 31.4256 76.5217 31.5352 76.9893 31.5352C77.4568 31.5352 77.8854 31.4256 78.275 31.1984C78.6646 30.9712 78.9763 30.6423 79.2023 30.2193C79.4282 29.7963 79.5451 29.295 79.5451 28.7232C79.5451 28.1514 79.4282 27.6579 79.2023 27.235Z" fill="white"/>
<path d="M22.1163 10.9582C21.1189 9.97129 19.8098 9.43865 18.3994 9.45432C17.7527 9.45432 17.2384 9.99479 17.2384 10.6371C17.2384 11.2794 17.7682 11.8042 18.4072 11.8042C18.415 11.8042 18.4306 11.8042 18.4462 11.8042C20.028 11.8042 21.3293 13.0966 21.3449 14.6867C21.3449 15.329 21.8748 15.8538 22.5137 15.8538H22.5215C23.1683 15.8538 23.6826 15.3133 23.6826 14.671C23.667 13.2689 23.1137 11.9452 22.1163 10.9661V10.9582Z" fill="white"/>
<path d="M18.5864 2.34204C18.6332 2.34204 18.6721 2.34204 18.7111 2.34204C24.7267 2.34204 29.8774 6.82245 30.7267 12.8068C30.8125 13.3943 31.3112 13.8172 31.88 13.8172C31.9345 13.8172 31.9891 13.8172 32.0436 13.8094C32.6826 13.7154 33.1267 13.1201 33.0332 12.4778C32.0203 5.34204 25.8722 0 18.7033 0C18.6566 0 18.6098 0 18.5631 0C17.9163 0 17.402 0.54047 17.402 1.18277C17.402 1.82507 17.9319 2.34987 18.5708 2.34987L18.5864 2.34204Z" fill="white"/>
<path d="M28.4514 15.4699C28.5605 12.6658 27.5631 9.83026 25.4358 7.69971C21.3917 3.63444 14.815 3.63444 10.7786 7.69971C8.69809 9.7911 7.63834 12.5953 7.76302 15.5091C6.03314 15.9556 4.38898 16.8485 3.03313 18.2115C-1.01104 22.2767 -1.01104 28.8877 3.03313 32.9451C5.05132 34.9739 7.70847 35.9921 10.3656 35.9921C13.0228 35.9921 15.6721 34.9739 17.6981 32.9451C17.8618 32.7807 18.0098 32.6005 18.1657 32.4282C20.067 34.6136 22.8488 36 25.9579 36C31.6774 36 36.3216 31.3237 36.3216 25.5822C36.3216 20.7885 33.0021 16.6057 28.4514 15.4699ZM25.9579 33.6579C21.5319 33.6579 17.9319 30.0391 17.9319 25.5901C17.9319 24.9399 17.4098 24.4151 16.7631 24.4151C16.1163 24.4151 15.5942 24.9399 15.5942 25.5901C15.5942 27.3368 16.0306 28.9817 16.7864 30.4308C16.5605 30.7363 16.3189 31.0261 16.0462 31.3002C12.9137 34.4491 7.81757 34.4491 4.69288 31.3002C1.5604 28.1514 1.5604 23.0365 4.69288 19.8877C7.82536 16.7389 12.9137 16.7389 16.0462 19.8877C16.5059 20.3498 17.2462 20.3498 17.6981 19.8877C18.1501 19.4256 18.1579 18.6814 17.6981 18.2271C15.602 16.1201 12.828 15.1175 10.0773 15.1958C10.0461 13.0183 10.8721 10.9347 12.4306 9.37595C15.5631 6.22713 20.6514 6.22713 23.7839 9.37595C26.9163 12.5248 26.9163 17.6475 23.7839 20.7885C23.3241 21.2506 23.3241 21.9948 23.7839 22.4491C24.0098 22.6762 24.3137 22.7937 24.6098 22.7937C24.906 22.7937 25.2098 22.6762 25.4358 22.4491C26.7605 21.1175 27.641 19.5196 28.093 17.8276C31.506 18.7833 33.9839 21.9634 33.9839 25.5979C33.9839 30.047 30.3839 33.6658 25.9579 33.6658V33.6579Z" fill="white"/>
</svg>
